<svg width="55" height="49" viewBox="0 0 55 49" version="1.1" xmlns="http://www.w3.org/2000/svg" xmlns:xlink="http://www.w3.org/1999/xlink" xmlns:figma="http://www.figma.com/figma/ns">
<title>menu_hover</title>
<desc>Created using Figma</desc>
<g id="Canvas" transform="translate(453 280)" figma:type="canvas">
<g id="menu_hover" style="mix-blend-mode:normal;" figma:type="frame">
<g id="Vector" style="mix-blend-mode:normal;" figma:type="vector">
<use xlink:href="#path0_fill" transform="translate(-454.124 -278.887)" fill="#2800A0" style="mix-blend-mode:normal;"/>
<use xlink:href="#path1_stroke" transform="translate(-454.124 -278.887)" fill="#2800A0" style="mix-blend-mode:normal;"/>
</g>
<g id="Vector 2" style="mix-blend-mode:normal;" figma:type="vector">
<use xlink:href="#path2_fill" transform="translate(-433.12 -252.531)" fill="#FFFFFF" style="mix-blend-mode:normal;"/>
<use xlink:href="#path3_stroke" transform="translate(-433.12 -252.531)" fill="#2800A0" style="mix-blend-mode:normal;"/>
</g>
</g>
</g>
<defs>
<path id="path0_fill" d="M 48.0694 47L 9.24698 47C 8.6947 47 8.24698 46.5523 8.24698 46L 8.24698 27.0308C 8.24698 26.4785 7.79927 26.0308 7.24698 26.0308L 2.70258 26.0308C 1.77425 26.0308 1.34692 24.8759 2.05166 24.2716L 29.6628 0.597014C 30.0567 0.259278 30.6435 0.278907 31.014 0.642214L 55.1536 24.3168C 55.793 24.9439 55.349 26.0308 54.4534 26.0308L 50.0694 26.0308C 49.5171 26.0308 49.0694 26.4785 49.0694 27.0308L 49.0694 46C 49.0694 46.5523 48.6217 47 48.0694 47Z"/>
<path id="path1_stroke" d="M 55.1536 24.3168L 54.8035 24.6738L 54.8035 24.6738L 55.1536 24.3168ZM 31.014 0.642214L 30.6639 0.999188L 30.6639 0.999189L 31.014 0.642214ZM 29.6628 0.597014L 29.3374 0.217439L 29.3374 0.217439L 29.6628 0.597014ZM 2.05166 24.2716L 2.37712 24.6512L 2.37712 24.6512L 2.05166 24.2716ZM 9.24698 47.5L 48.0694 47.5L 48.0694 46.5L 9.24698 46.5L 9.24698 47.5ZM 49.5694 46L 49.5694 27.0308L 48.5694 27.0308L 48.5694 46L 49.5694 46ZM 50.0694 26.5308L 54.4534 26.5308L 54.4534 25.5308L 50.0694 25.5308L 50.0694 26.5308ZM 55.5037 23.9598L 31.3641 0.285239L 30.6639 0.999189L 54.8035 24.6738L 55.5037 23.9598ZM 29.3374 0.217439L 1.7262 23.892L 2.37712 24.6512L 29.9883 0.976589L 29.3374 0.217439ZM 2.70258 26.5308L 7.24698 26.5308L 7.24698 25.5308L 2.70258 25.5308L 2.70258 26.5308ZM 7.74698 27.0308L 7.74698 46L 8.74698 46L 8.74698 27.0308L 7.74698 27.0308ZM 9.24698 46.5C 8.97084 46.5 8.74698 46.2761 8.74698 46L 7.74698 46C 7.74698 46.8284 8.41856 47.5 9.24698 47.5L 9.24698 46.5ZM 48.0694 47.5C 48.8978 47.5 49.5694 46.8284 49.5694 46L 48.5694 46C 48.5694 46.2761 48.3456 46.5 48.0694 46.5L 48.0694 47.5ZM 49.5694 27.0308C 49.5694 26.7546 49.7933 26.5308 50.0694 26.5308L 50.0694 25.5308C 49.241 25.5308 48.5694 26.2023 48.5694 27.0308L 49.5694 27.0308ZM 54.4534 26.5308C 55.7968 26.5308 56.4628 24.9005 55.5037 23.9598L 54.8035 24.6738C 55.1232 24.9873 54.9012 25.5308 54.4534 25.5308L 54.4534 26.5308ZM 31.3641 0.285239C 30.8084 -0.259721 29.9282 -0.289165 29.3374 0.217439L 29.9883 0.976589C 30.1853 0.80772 30.4786 0.817536 30.6639 0.999188L 31.3641 0.285239ZM 1.7262 23.892C 0.669094 24.7984 1.31009 26.5308 2.70258 26.5308L 2.70258 25.5308C 2.23841 25.5308 2.02475 24.9533 2.37712 24.6512L 1.7262 23.892ZM 7.24698 26.5308C 7.52313 26.5308 7.74698 26.7546 7.74698 27.0308L 8.74698 27.0308C 8.74698 26.2023 8.07541 25.5308 7.24698 25.5308L 7.24698 26.5308Z"/>
<path id="path2_fill" d="M 15.7944 12.2923L 0 12.2923L 0 0L 15.7944 0L 15.7944 12.2923Z"/>
<path id="path3_stroke" d="M 0 12.2923L -0.5 12.2923L -0.5 12.7923L 0 12.7923L 0 12.2923ZM 15.7944 12.2923L 15.7944 12.7923L 16.2944 12.7923L 16.2944 12.2923L 15.7944 12.2923ZM 15.7944 0L 16.2944 0L 16.2944 -0.5L 15.7944 -0.5L 15.7944 0ZM 0 0L 0 -0.5L -0.5 -0.5L -0.5 0L 0 0ZM 0 12.7923L 15.7944 12.7923L 15.7944 11.7923L 0 11.7923L 0 12.7923ZM 16.2944 12.2923L 16.2944 0L 15.2944 0L 15.2944 12.2923L 16.2944 12.2923ZM 15.7944 -0.5L 0 -0.5L 0 0.5L 15.7944 0.5L 15.7944 -0.5ZM -0.5 0L -0.5 12.2923L 0.5 12.2923L 0.5 0L -0.5 0Z"/>
</defs>
</svg>
